<svg xmlns="http://www.w3.org/2000/svg" xmlns:xlink="http://www.w3.org/1999/xlink" x="0px" y="0px" viewBox="0 0 512 512" style="enable-background:new 0 0 512 512;" xml:space="preserve" width="512" height="512">
<g>
	<path d="M495.885,398.936l-12.618-95.293c-7.655-57.818-48.487-103.375-100.871-119.482c3.807-7.965,6.085-13.764,7.151-16.657   c2.185-4.261,2.275-9.456-0.118-13.919C369.762,96.54,324.332,0,263.635,0c-60.675,0-106.183,96.707-125.792,153.581   c-2.395,4.465-2.304,9.663-0.118,13.925c1.029,2.794,3.189,8.296,6.761,15.839c-52.916,13.41-94.517,55.792-106.099,110.452   L16.846,395.482c-6.08,28.694,11.368,57.054,39.721,64.565l35.068,9.29V477c0,19.299,15.701,35,35,35h274c19.299,0,35-15.701,35-35   v-12.431l19.809-5.248C482.121,452.255,499.507,426.295,495.885,398.936z M405.635,421h-284V285c3.042,0,270.609,0,284,0V421z    M231.41,255c-38.303-39.642-56.757-77.056-63.18-92.056c5.876-6.09,14.162-10.506,23.962-13.733l8.406,39.292   c6.32,29.538,32.832,50.976,63.037,50.976s56.717-21.438,63.037-50.977l8.406-39.292c9.799,3.226,18.084,7.642,23.96,13.731   c-11.753,27.452-33.577,61.421-63.179,92.058H231.41z M221.551,143.039c27.491-3.467,55.758-3.583,84.17,0l-8.384,39.187   c-3.379,15.792-17.553,27.253-33.701,27.253s-30.322-11.462-33.701-27.253L221.551,143.039z M263.635,30   c33.529,0,65.836,59.794,79.968,90.372c-41.695-13.329-118.284-13.315-159.935,0C197.784,89.829,230.097,30,263.635,30z    M64.249,431.047c-12.887-3.414-20.817-16.305-18.055-29.348l21.544-101.685c9.605-45.341,46.209-80.822,91.606-89.232   c7.959,13.106,18.373,28.226,31.739,44.217h-74.448c-13.785,0-25,11.215-25,25c0,7.45,0,150.917,0,158.302L64.249,431.047z    M405.635,477c0,2.757-2.243,5-5,5h-274c-2.757,0-5-2.243-5-5v-26h284V477z M447.762,430.322l-12.127,3.213V280   c0-13.785-11.215-25-25-25h-74.449c13.224-15.822,23.558-30.789,31.484-43.799c45.032,11.44,79.677,49.719,85.856,96.379   l12.618,95.292C467.791,415.309,459.888,427.109,447.762,430.322z"/>
	<path d="M289.635,338h-52c-8.284,0-15,6.716-15,15s6.716,15,15,15h52c8.284,0,15-6.716,15-15S297.92,338,289.635,338z"/>
</g></svg>
